REM DIRINDEX 1\2\4\18,1\2\4\19,1\2\5\20,1\2\5\21,1\2\6\22,1\2\6\23,1\2\7\24,1\2\7\25,1\2\8\26,1\2\8\27,1\2\9\28,1\2\9\29,1\2\10\30,1\3\11\31,1\3\11\32,1\3\11\33,1\3\11\34,1\3\11\35,1\3\12\36,1\3\12\37,1\3\12\38,1\3\12\39,1\3\12\40,1\3\13\41,1\3\13\42,1\3\13\43,1\3\13\44,1\3\13\45,1\3\14\46,1\3\14\47,1\3\14\48,1\3\14\49,1\3\15\50,1\3\15\51,1\3\15\52,1\3\15\53,1\3\15\54,1\3\16\55,1\3\16\56,1\3\16\57,1\3\16\58,1\3\16\59,1\3\17\60,1\3\17\61
REM DIRNAME "folder01","folder02","folder03","folder04","folder05","folder06","folder07","folder08","folder09","folder10","folder11","folder12","folder13","folder14","folder15","folder16","folder17","folder18","folder19","folder20","folder21","folder22","folder23","folder24","folder25","folder26","folder27","folder28","folder29","folder30","folder31","folder32","folder33","folder34","folder35","folder36","folder37","folder38","folder39","folder40","folder41","folder42","folder43","folder44","folder45","folder46","folder47","folder48","folder49","folder50","folder51","folder52","folder53","folder54","folder55","folder56","folder57","folder58","folder59","folder60","folder61"
TITLE ""
FILE "TOEIC LR Kinnojyukugo_13.mp3" MP3
  TRACK 01 AUDIO
    TITLE "0:"
    INDEX 01 00:00:00
  TRACK 02 AUDIO
    TITLE "31:cjc160_5226"
    INDEX 01 00:00:08
  TRACK 03 AUDIO
    TITLE "0:"
    INDEX 01 00:01:37
  TRACK 04 AUDIO
    TITLE "32:cjc160_5227"
    INDEX 01 00:01:74
  TRACK 05 AUDIO
    TITLE "0:"
    INDEX 01 00:03:16
  TRACK 06 AUDIO
    TITLE "33:cjc160_5228"
    INDEX 01 00:03:60
  TRACK 07 AUDIO
    TITLE "0:"
    INDEX 01 00:07:08
  TRACK 08 AUDIO
    TITLE "34:cjc160_5229"
    INDEX 01 00:07:46
  TRACK 09 AUDIO
    TITLE "0:"
    INDEX 01 00:10:60
  TRACK 10 AUDIO
    TITLE "35:cjc160_5230"
    INDEX 01 00:11:08
  TRACK 11 AUDIO
    TITLE "0:"
    INDEX 01 00:14:20
  TRACK 12 AUDIO
    TITLE "31:cjc160_5231"
    INDEX 01 00:15:20
  TRACK 13 AUDIO
    TITLE "0:"
    INDEX 01 00:16:47
  TRACK 14 AUDIO
    TITLE "32:cjc160_5232"
    INDEX 01 00:17:09
  TRACK 15 AUDIO
    TITLE "0:"
    INDEX 01 00:18:65
  TRACK 16 AUDIO
    TITLE "33:cjc160_5233"
    INDEX 01 00:19:37
  TRACK 17 AUDIO
    TITLE "0:"
    INDEX 01 00:23:05
  TRACK 18 AUDIO
    TITLE "34:cjc160_5234"
    INDEX 01 00:23:45
  TRACK 19 AUDIO
    TITLE "0:"
    INDEX 01 00:26:43
  TRACK 20 AUDIO
    TITLE "35:cjc160_5235"
    INDEX 01 00:26:70
  TRACK 21 AUDIO
    TITLE "0:"
    INDEX 01 00:29:71
  TRACK 22 AUDIO
    TITLE "31:cjc160_5236"
    INDEX 01 00:30:70
  TRACK 23 AUDIO
    TITLE "0:"
    INDEX 01 00:32:22
  TRACK 24 AUDIO
    TITLE "32:cjc160_5237"
    INDEX 01 00:32:59
  TRACK 25 AUDIO
    TITLE "0:"
    INDEX 01 00:34:05
  TRACK 26 AUDIO
    TITLE "33:cjc160_5238"
    INDEX 01 00:34:44
  TRACK 27 AUDIO
    TITLE "0:"
    INDEX 01 00:37:06
  TRACK 28 AUDIO
    TITLE "34:cjc160_5239"
    INDEX 01 00:37:45
  TRACK 29 AUDIO
    TITLE "0:"
    INDEX 01 00:40:06
  TRACK 30 AUDIO
    TITLE "35:cjc160_5240"
    INDEX 01 00:40:29
  TRACK 31 AUDIO
    TITLE "0:"
    INDEX 01 00:42:66
  TRACK 32 AUDIO
    TITLE "31:cjc160_5241"
    INDEX 01 00:43:65
  TRACK 33 AUDIO
    TITLE "0:"
    INDEX 01 00:45:03
  TRACK 34 AUDIO
    TITLE "32:cjc160_5242"
    INDEX 01 00:45:40
  TRACK 35 AUDIO
    TITLE "0:"
    INDEX 01 00:46:48
  TRACK 36 AUDIO
    TITLE "33:cjc160_5243"
    INDEX 01 00:47:10
  TRACK 37 AUDIO
    TITLE "0:"
    INDEX 01 00:48:52
  TRACK 38 AUDIO
    TITLE "34:cjc160_5244"
    INDEX 01 00:49:15
  TRACK 39 AUDIO
    TITLE "0:"
    INDEX 01 00:51:12
  TRACK 40 AUDIO
    TITLE "35:cjc160_5245"
    INDEX 01 00:51:47
  TRACK 41 AUDIO
    TITLE "0:"
    INDEX 01 00:53:40
  TRACK 42 AUDIO
    TITLE "31:cjc160_5246"
    INDEX 01 00:54:39
  TRACK 43 AUDIO
    TITLE "0:"
    INDEX 01 00:55:58
  TRACK 44 AUDIO
    TITLE "32:cjc160_5247"
    INDEX 01 00:56:23
  TRACK 45 AUDIO
    TITLE "0:"
    INDEX 01 00:57:36
  TRACK 46 AUDIO
    TITLE "33:cjc160_5248"
    INDEX 01 00:58:00
  TRACK 47 AUDIO
    TITLE "0:"
    INDEX 01 01:00:69
  TRACK 48 AUDIO
    TITLE "34:cjc160_5249"
    INDEX 01 01:01:35
  TRACK 49 AUDIO
    TITLE "0:"
    INDEX 01 01:04:08
  TRACK 50 AUDIO
    TITLE "35:cjc160_5250"
    INDEX 01 01:04:32
  TRACK 51 AUDIO
    TITLE "0:"
    INDEX 01 01:07:05
  TRACK 52 AUDIO
    TITLE "31:cjc160_5251"
    INDEX 01 01:08:06
  TRACK 53 AUDIO
    TITLE "0:"
    INDEX 01 01:09:17
  TRACK 54 AUDIO
    TITLE "32:cjc160_5252"
    INDEX 01 01:09:57
  TRACK 55 AUDIO
    TITLE "0:"
    INDEX 01 01:11:04
  TRACK 56 AUDIO
    TITLE "33:cjc160_5253"
    INDEX 01 01:11:44
  TRACK 57 AUDIO
    TITLE "0:"
    INDEX 01 01:13:60
  TRACK 58 AUDIO
    TITLE "34:cjc160_5254"
    INDEX 01 01:14:24
  TRACK 59 AUDIO
    TITLE "0:"
    INDEX 01 01:16:25
  TRACK 60 AUDIO
    TITLE "35:cjc160_5255"
    INDEX 01 01:16:53
  TRACK 61 AUDIO
    TITLE "0:"
    INDEX 01 01:18:54
  TRACK 62 AUDIO
    TITLE "31:cjc160_5256"
    INDEX 01 01:19:55
  TRACK 63 AUDIO
    TITLE "0:"
    INDEX 01 01:21:11
  TRACK 64 AUDIO
    TITLE "32:cjc160_5257"
    INDEX 01 01:21:46
  TRACK 65 AUDIO
    TITLE "0:"
    INDEX 01 01:24:01
  TRACK 66 AUDIO
    TITLE "33:cjc160_5258"
    INDEX 01 01:24:44
  TRACK 67 AUDIO
    TITLE "0:"
    INDEX 01 01:26:35
  TRACK 68 AUDIO
    TITLE "34:cjc160_5259"
    INDEX 01 01:27:00
  TRACK 69 AUDIO
    TITLE "0:"
    INDEX 01 01:29:53
  TRACK 70 AUDIO
    TITLE "35:cjc160_5260"
    INDEX 01 01:30:04
  TRACK 71 AUDIO
    TITLE "0:"
    INDEX 01 01:32:60
  TRACK 72 AUDIO
    TITLE "31:cjc160_5261"
    INDEX 01 01:33:59
  TRACK 73 AUDIO
    TITLE "0:"
    INDEX 01 01:34:74
  TRACK 74 AUDIO
    TITLE "32:cjc160_5262"
    INDEX 01 01:35:38
  TRACK 75 AUDIO
    TITLE "0:"
    INDEX 01 01:38:07
  TRACK 76 AUDIO
    TITLE "33:cjc160_5263"
    INDEX 01 01:38:50
  TRACK 77 AUDIO
    TITLE "0:"
    INDEX 01 01:40:63
  TRACK 78 AUDIO
    TITLE "34:cjc160_5264"
    INDEX 01 01:41:25
  TRACK 79 AUDIO
    TITLE "0:"
    INDEX 01 01:43:44
  TRACK 80 AUDIO
    TITLE "35:cjc160_5265"
    INDEX 01 01:43:69
  TRACK 81 AUDIO
    TITLE "0:"
    INDEX 01 01:46:15
  TRACK 82 AUDIO
    TITLE "31:cjc160_5266"
    INDEX 01 01:47:16
  TRACK 83 AUDIO
    TITLE "0:"
    INDEX 01 01:48:21
  TRACK 84 AUDIO
    TITLE "32:cjc160_5267"
    INDEX 01 01:48:64
  TRACK 85 AUDIO
    TITLE "0:"
    INDEX 01 01:51:33
  TRACK 86 AUDIO
    TITLE "33:cjc160_5268"
    INDEX 01 01:51:73
  TRACK 87 AUDIO
    TITLE "0:"
    INDEX 01 01:54:55
  TRACK 88 AUDIO
    TITLE "34:cjc160_5269"
    INDEX 01 01:55:19
  TRACK 89 AUDIO
    TITLE "0:"
    INDEX 01 01:57:28
  TRACK 90 AUDIO
    TITLE "35:cjc160_5270"
    INDEX 01 01:57:58
  TRACK 91 AUDIO
    TITLE "0:"
    INDEX 01 01:59:68
  TRACK 92 AUDIO
    TITLE "31:cjc160_5271"
    INDEX 01 02:00:70
  TRACK 93 AUDIO
    TITLE "0:"
    INDEX 01 02:02:65
  TRACK 94 AUDIO
    TITLE "32:cjc160_5272"
    INDEX 01 02:03:27
  TRACK 95 AUDIO
    TITLE "0:"
    INDEX 01 02:05:30
  TRACK 96 AUDIO
    TITLE "33:cjc160_5273"
    INDEX 01 02:05:69
  TRACK 97 AUDIO
    TITLE "0:"
    INDEX 01 02:08:59
  TRACK 98 AUDIO
    TITLE "34:cjc160_5274"
    INDEX 01 02:09:22
  TRACK 99 AUDIO
    TITLE "0:"
    INDEX 01 02:12:06
  TRACK 100 AUDIO
    TITLE "35:cjc160_5275"
    INDEX 01 02:12:30
  TRACK 101 AUDIO
    TITLE "0:"
    INDEX 01 02:15:14
  TRACK 102 AUDIO
    TITLE "31:cjc160_5276"
    INDEX 01 02:16:12
  TRACK 103 AUDIO
    TITLE "0:"
    INDEX 01 02:17:31
  TRACK 104 AUDIO
    TITLE "32:cjc160_5277"
    INDEX 01 02:17:70
  TRACK 105 AUDIO
    TITLE "0:"
    INDEX 01 02:22:10
  TRACK 106 AUDIO
    TITLE "33:cjc160_5278"
    INDEX 01 02:22:50
  TRACK 107 AUDIO
    TITLE "0:"
    INDEX 01 02:25:36
  TRACK 108 AUDIO
    TITLE "34:cjc160_5279"
    INDEX 01 02:26:08
  TRACK 109 AUDIO
    TITLE "0:"
    INDEX 01 02:28:21
  TRACK 110 AUDIO
    TITLE "35:cjc160_5280"
    INDEX 01 02:28:46
  TRACK 111 AUDIO
    TITLE "0:"
    INDEX 01 02:30:59
  TRACK 112 AUDIO
    TITLE "31:cjc160_5281"
    INDEX 01 02:31:56
  TRACK 113 AUDIO
    TITLE "0:"
    INDEX 01 02:33:40
  TRACK 114 AUDIO
    TITLE "32:cjc160_5282"
    INDEX 01 02:34:04
  TRACK 115 AUDIO
    TITLE "0:"
    INDEX 01 02:35:50
  TRACK 116 AUDIO
    TITLE "33:cjc160_5283"
    INDEX 01 02:36:12
  TRACK 117 AUDIO
    TITLE "0:"
    INDEX 01 02:40:06
  TRACK 118 AUDIO
    TITLE "34:cjc160_5284"
    INDEX 01 02:40:46
  TRACK 119 AUDIO
    TITLE "0:"
    INDEX 01 02:43:30
  TRACK 120 AUDIO
    TITLE "35:cjc160_5285"
    INDEX 01 02:43:54
  TRACK 121 AUDIO
    TITLE "0:"
    INDEX 01 02:46:40
  TRACK 122 AUDIO
    TITLE "31:cjc160_5286"
    INDEX 01 02:47:40
  TRACK 123 AUDIO
    TITLE "0:"
    INDEX 01 02:48:73
  TRACK 124 AUDIO
    TITLE "32:cjc160_5287"
    INDEX 01 02:49:29
  TRACK 125 AUDIO
    TITLE "0:"
    INDEX 01 02:52:29
  TRACK 126 AUDIO
    TITLE "33:cjc160_5288"
    INDEX 01 02:52:68
  TRACK 127 AUDIO
    TITLE "0:"
    INDEX 01 02:55:47
  TRACK 128 AUDIO
    TITLE "34:cjc160_5289"
    INDEX 01 02:56:09
  TRACK 129 AUDIO
    TITLE "0:"
    INDEX 01 02:59:00
  TRACK 130 AUDIO
    TITLE "35:cjc160_5290"
    INDEX 01 02:59:27
  TRACK 131 AUDIO
    TITLE "0:"
    INDEX 01 03:02:20
  TRACK 132 AUDIO
    TITLE "31:cjc160_5291"
    INDEX 01 03:03:19
  TRACK 133 AUDIO
    TITLE "0:"
    INDEX 01 03:04:40
  TRACK 134 AUDIO
    TITLE "32:cjc160_5292"
    INDEX 01 03:05:06
  TRACK 135 AUDIO
    TITLE "0:"
    INDEX 01 03:06:57
  TRACK 136 AUDIO
    TITLE "33:cjc160_5293"
    INDEX 01 03:07:25
  TRACK 137 AUDIO
    TITLE "0:"
    INDEX 01 03:10:47
  TRACK 138 AUDIO
    TITLE "34:cjc160_5294"
    INDEX 01 03:11:09
  TRACK 139 AUDIO
    TITLE "0:"
    INDEX 01 03:13:63
  TRACK 140 AUDIO
    TITLE "35:cjc160_5295"
    INDEX 01 03:14:13
  TRACK 141 AUDIO
    TITLE "0:"
    INDEX 01 03:16:65
  TRACK 142 AUDIO
    TITLE "31:cjc160_5296"
    INDEX 01 03:17:64
  TRACK 143 AUDIO
    TITLE "0:"
    INDEX 01 03:19:53
  TRACK 144 AUDIO
    TITLE "32:cjc160_5297"
    INDEX 01 03:20:18
  TRACK 145 AUDIO
    TITLE "0:"
    INDEX 01 03:24:21
  TRACK 146 AUDIO
    TITLE "33:cjc160_5298"
    INDEX 01 03:24:61
  TRACK 147 AUDIO
    TITLE "0:"
    INDEX 01 03:27:45
  TRACK 148 AUDIO
    TITLE "34:cjc160_5299"
    INDEX 01 03:28:09
  TRACK 149 AUDIO
    TITLE "0:"
    INDEX 01 03:30:24
  TRACK 150 AUDIO
    TITLE "35:cjc160_5300"
    INDEX 01 03:30:49
  TRACK 151 AUDIO
    TITLE "0:"
    INDEX 01 03:32:64
  TRACK 152 AUDIO
    TITLE "31:cjc160_5301"
    INDEX 01 03:33:65
  TRACK 153 AUDIO
    TITLE "0:"
    INDEX 01 03:35:45
  TRACK 154 AUDIO
    TITLE "32:cjc160_5302"
    INDEX 01 03:36:07
  TRACK 155 AUDIO
    TITLE "0:"
    INDEX 01 03:37:34
  TRACK 156 AUDIO
    TITLE "33:cjc160_5303"
    INDEX 01 03:37:73
  TRACK 157 AUDIO
    TITLE "0:"
    INDEX 01 03:41:14
  TRACK 158 AUDIO
    TITLE "34:cjc160_5304"
    INDEX 01 03:41:55
  TRACK 159 AUDIO
    TITLE "0:"
    INDEX 01 03:45:23
  TRACK 160 AUDIO
    TITLE "35:cjc160_5305"
    INDEX 01 03:45:47
  TRACK 161 AUDIO
    TITLE "0:"
    INDEX 01 03:49:15
  TRACK 162 AUDIO
    TITLE "31:cjc160_5306"
    INDEX 01 03:50:15
  TRACK 163 AUDIO
    TITLE "0:"
    INDEX 01 03:52:16
  TRACK 164 AUDIO
    TITLE "32:cjc160_5307"
    INDEX 01 03:52:47
  TRACK 165 AUDIO
    TITLE "0:"
    INDEX 01 03:57:19
  TRACK 166 AUDIO
    TITLE "33:cjc160_5308"
    INDEX 01 03:57:58
  TRACK 167 AUDIO
    TITLE "0:"
    INDEX 01 04:00:39
  TRACK 168 AUDIO
    TITLE "34:cjc160_5309"
    INDEX 01 04:00:74
  TRACK 169 AUDIO
    TITLE "0:"
    INDEX 01 04:03:45
  TRACK 170 AUDIO
    TITLE "35:cjc160_5310"
    INDEX 01 04:03:70
  TRACK 171 AUDIO
    TITLE "0:"
    INDEX 01 04:06:39
  TRACK 172 AUDIO
    TITLE "31:cjc160_5311"
    INDEX 01 04:07:41
  TRACK 173 AUDIO
    TITLE "0:"
    INDEX 01 04:10:06
  TRACK 174 AUDIO
    TITLE "32:cjc160_5312"
    INDEX 01 04:10:43
  TRACK 175 AUDIO
    TITLE "0:"
    INDEX 01 04:12:36
  TRACK 176 AUDIO
    TITLE "33:cjc160_5313"
    INDEX 01 04:13:00
  TRACK 177 AUDIO
    TITLE "0:"
    INDEX 01 04:14:64
  TRACK 178 AUDIO
    TITLE "34:cjc160_5314"
    INDEX 01 04:15:28
  TRACK 179 AUDIO
    TITLE "0:"
    INDEX 01 04:18:05
  TRACK 180 AUDIO
    TITLE "35:cjc160_5315"
    INDEX 01 04:18:29
  TRACK 181 AUDIO
    TITLE "0:"
    INDEX 01 04:21:06
  TRACK 182 AUDIO
    TITLE "31:cjc160_5316"
    INDEX 01 04:22:07
  TRACK 183 AUDIO
    TITLE "0:"
    INDEX 01 04:24:24
  TRACK 184 AUDIO
    TITLE "32:cjc160_5317"
    INDEX 01 04:24:61
  TRACK 185 AUDIO
    TITLE "0:"
    INDEX 01 04:26:64
  TRACK 186 AUDIO
    TITLE "33:cjc160_5318"
    INDEX 01 04:27:28
  TRACK 187 AUDIO
    TITLE "0:"
    INDEX 01 04:30:52
  TRACK 188 AUDIO
    TITLE "34:cjc160_5319"
    INDEX 01 04:31:18
  TRACK 189 AUDIO
    TITLE "0:"
    INDEX 01 04:34:16
  TRACK 190 AUDIO
    TITLE "35:cjc160_5320"
    INDEX 01 04:34:42
  TRACK 191 AUDIO
    TITLE "0:"
    INDEX 01 04:37:40
  TRACK 192 AUDIO
    TITLE "31:cjc160_5321"
    INDEX 01 04:38:41
  TRACK 193 AUDIO
    TITLE "0:"
    INDEX 01 04:39:62
  TRACK 194 AUDIO
    TITLE "32:cjc160_5322"
    INDEX 01 04:40:26
  TRACK 195 AUDIO
    TITLE "0:"
    INDEX 01 04:42:66
  TRACK 196 AUDIO
    TITLE "33:cjc160_5323"
    INDEX 01 04:43:27
  TRACK 197 AUDIO
    TITLE "0:"
    INDEX 01 04:47:66
  TRACK 198 AUDIO
    TITLE "34:cjc160_5324"
    INDEX 01 04:48:32
  TRACK 199 AUDIO
    TITLE "0:"
    INDEX 01 04:51:60
  TRACK 200 AUDIO
    TITLE "35:cjc160_5325"
    INDEX 01 04:52:12
  TRACK 201 AUDIO
    TITLE "0:"
    INDEX 01 04:55:40
  TRACK 202 AUDIO
    TITLE "31:cjc160_5326"
    INDEX 01 04:56:43
  TRACK 203 AUDIO
    TITLE "0:"
    INDEX 01 04:58:07
  TRACK 204 AUDIO
    TITLE "32:cjc160_5327"
    INDEX 01 04:58:46
  TRACK 205 AUDIO
    TITLE "0:"
    INDEX 01 05:00:13
  TRACK 206 AUDIO
    TITLE "33:cjc160_5328"
    INDEX 01 05:00:53
  TRACK 207 AUDIO
    TITLE "0:"
    INDEX 01 05:03:63
  TRACK 208 AUDIO
    TITLE "34:cjc160_5329"
    INDEX 01 05:04:25
  TRACK 209 AUDIO
    TITLE "0:"
    INDEX 01 05:07:19
  TRACK 210 AUDIO
    TITLE "35:cjc160_5330"
    INDEX 01 05:07:45
  TRACK 211 AUDIO
    TITLE "0:"
    INDEX 01 05:10:39
  TRACK 212 AUDIO
    TITLE "31:cjc160_5331"
    INDEX 01 05:11:39
  TRACK 213 AUDIO
    TITLE "0:"
    INDEX 01 05:12:52
  TRACK 214 AUDIO
    TITLE "32:cjc160_5332"
    INDEX 01 05:13:14
  TRACK 215 AUDIO
    TITLE "0:"
    INDEX 01 05:14:45
  TRACK 216 AUDIO
    TITLE "33:cjc160_5333"
    INDEX 01 05:15:07
  TRACK 217 AUDIO
    TITLE "0:"
    INDEX 01 05:18:29
  TRACK 218 AUDIO
    TITLE "34:cjc160_5334"
    INDEX 01 05:18:68
  TRACK 219 AUDIO
    TITLE "0:"
    INDEX 01 05:21:37
  TRACK 220 AUDIO
    TITLE "35:cjc160_5335"
    INDEX 01 05:21:63
  TRACK 221 AUDIO
    TITLE "0:"
    INDEX 01 05:24:32
  TRACK 222 AUDIO
    TITLE "31:cjc160_5336"
    INDEX 01 05:25:33
  TRACK 223 AUDIO
    TITLE "0:"
    INDEX 01 05:26:46
  TRACK 224 AUDIO
    TITLE "32:cjc160_5337"
    INDEX 01 05:27:16
  TRACK 225 AUDIO
    TITLE "0:"
    INDEX 01 05:29:50
  TRACK 226 AUDIO
    TITLE "33:cjc160_5338"
    INDEX 01 05:30:15
  TRACK 227 AUDIO
    TITLE "0:"
    INDEX 01 05:33:74
  TRACK 228 AUDIO
    TITLE "34:cjc160_5339"
    INDEX 01 05:34:34
  TRACK 229 AUDIO
    TITLE "0:"
    INDEX 01 05:37:07
  TRACK 230 AUDIO
    TITLE "35:cjc160_5340"
    INDEX 01 05:37:28
  TRACK 231 AUDIO
    TITLE "0:"
    INDEX 01 05:40:03
  TRACK 232 AUDIO
    TITLE "31:cjc160_5341"
    INDEX 01 05:41:05
  TRACK 233 AUDIO
    TITLE "0:"
    INDEX 01 05:42:00
  TRACK 234 AUDIO
    TITLE "32:cjc160_5342"
    INDEX 01 05:42:53
  TRACK 235 AUDIO
    TITLE "0:"
    INDEX 01 05:43:60
  TRACK 236 AUDIO
    TITLE "33:cjc160_5343"
    INDEX 01 05:44:24
  TRACK 237 AUDIO
    TITLE "0:"
    INDEX 01 05:46:18
  TRACK 238 AUDIO
    TITLE "34:cjc160_5344"
    INDEX 01 05:46:59
  TRACK 239 AUDIO
    TITLE "0:"
    INDEX 01 05:48:34
  TRACK 240 AUDIO
    TITLE "35:cjc160_5345"
    INDEX 01 05:48:60
  TRACK 241 AUDIO
    TITLE "0:"
    INDEX 01 05:50:37
  TRACK 242 AUDIO
    TITLE "31:cjc160_5346"
    INDEX 01 05:51:36
  TRACK 243 AUDIO
    TITLE "0:"
    INDEX 01 05:53:31
  TRACK 244 AUDIO
    TITLE "32:cjc160_5347"
    INDEX 01 05:53:70
  TRACK 245 AUDIO
    TITLE "0:"
    INDEX 01 05:55:62
  TRACK 246 AUDIO
    TITLE "33:cjc160_5348"
    INDEX 01 05:56:26
  TRACK 247 AUDIO
    TITLE "0:"
    INDEX 01 05:58:27
  TRACK 248 AUDIO
    TITLE "34:cjc160_5349"
    INDEX 01 05:58:64
  TRACK 249 AUDIO
    TITLE "0:"
    INDEX 01 06:01:07
  TRACK 250 AUDIO
    TITLE "35:cjc160_5350"
    INDEX 01 06:01:33
  TRACK 251 AUDIO
    TITLE "0:"
    INDEX 01 06:03:49
  TRACK 252 AUDIO
    TITLE "31:cjc160_5351"
    INDEX 01 06:04:49
  TRACK 253 AUDIO
    TITLE "0:"
    INDEX 01 06:06:28
  TRACK 254 AUDIO
    TITLE "32:cjc160_5352"
    INDEX 01 06:06:65
  TRACK 255 AUDIO
    TITLE "0:"
    INDEX 01 06:09:17
  TRACK 256 AUDIO
    TITLE "33:cjc160_5353"
    INDEX 01 06:09:54
  TRACK 257 AUDIO
    TITLE "0:"
    INDEX 01 06:12:27
  TRACK 258 AUDIO
    TITLE "34:cjc160_5354"
    INDEX 01 06:12:66
  TRACK 259 AUDIO
    TITLE "0:"
    INDEX 01 06:15:56
  TRACK 260 AUDIO
    TITLE "35:cjc160_5355"
    INDEX 01 06:16:07
  TRACK 261 AUDIO
    TITLE "0:"
    INDEX 01 06:18:74
  TRACK 262 AUDIO
    TITLE "31:cjc160_5356"
    INDEX 01 06:19:74
  TRACK 263 AUDIO
    TITLE "0:"
    INDEX 01 06:21:18
  TRACK 264 AUDIO
    TITLE "32:cjc160_5357"
    INDEX 01 06:21:55
  TRACK 265 AUDIO
    TITLE "0:"
    INDEX 01 06:25:72
  TRACK 266 AUDIO
    TITLE "33:cjc160_5358"
    INDEX 01 06:26:43
  TRACK 267 AUDIO
    TITLE "0:"
    INDEX 01 06:29:45
  TRACK 268 AUDIO
    TITLE "34:cjc160_5359"
    INDEX 01 06:30:09
  TRACK 269 AUDIO
    TITLE "0:"
    INDEX 01 06:33:39
  TRACK 270 AUDIO
    TITLE "35:cjc160_5360"
    INDEX 01 06:33:64
  TRACK 271 AUDIO
    TITLE "0:"
    INDEX 01 06:37:19
  TRACK 272 AUDIO
    TITLE "31:cjc160_5361"
    INDEX 01 06:38:20
  TRACK 273 AUDIO
    TITLE "0:"
    INDEX 01 06:39:55
  TRACK 274 AUDIO
    TITLE "32:cjc160_5362"
    INDEX 01 06:40:19
  TRACK 275 AUDIO
    TITLE "0:"
    INDEX 01 06:41:58
  TRACK 276 AUDIO
    TITLE "33:cjc160_5363"
    INDEX 01 06:42:24
  TRACK 277 AUDIO
    TITLE "0:"
    INDEX 01 06:44:58
  TRACK 278 AUDIO
    TITLE "34:cjc160_5364"
    INDEX 01 06:45:20
  TRACK 279 AUDIO
    TITLE "0:"
    INDEX 01 06:48:07
  TRACK 280 AUDIO
    TITLE "35:cjc160_5365"
    INDEX 01 06:48:34
  TRACK 281 AUDIO
    TITLE "0:"
    INDEX 01 06:51:23
  TRACK 282 AUDIO
    TITLE "31:cjc160_5366"
    INDEX 01 06:52:24
  TRACK 283 AUDIO
    TITLE "0:"
    INDEX 01 06:53:41
  TRACK 284 AUDIO
    TITLE "32:cjc160_5367"
    INDEX 01 06:54:06
  TRACK 285 AUDIO
    TITLE "0:"
    INDEX 01 06:57:18
  TRACK 286 AUDIO
    TITLE "33:cjc160_5368"
    INDEX 01 06:57:61
  TRACK 287 AUDIO
    TITLE "0:"
    INDEX 01 07:00:24
  TRACK 288 AUDIO
    TITLE "34:cjc160_5369"
    INDEX 01 07:00:63
  TRACK 289 AUDIO
    TITLE "0:"
    INDEX 01 07:03:46
  TRACK 290 AUDIO
    TITLE "35:cjc160_5370"
    INDEX 01 07:03:69
  TRACK 291 AUDIO
    TITLE "0:"
    INDEX 01 07:06:54
  TRACK 292 AUDIO
    TITLE "31:cjc160_5371"
    INDEX 01 07:07:53
  TRACK 293 AUDIO
    TITLE "0:"
    INDEX 01 07:09:15
  TRACK 294 AUDIO
    TITLE "32:cjc160_5372"
    INDEX 01 07:09:54
  TRACK 295 AUDIO
    TITLE "0:"
    INDEX 01 07:11:69
  TRACK 296 AUDIO
    TITLE "33:cjc160_5373"
    INDEX 01 07:12:39
  TRACK 297 AUDIO
    TITLE "0:"
    INDEX 01 07:15:51
  TRACK 298 AUDIO
    TITLE "34:cjc160_5374"
    INDEX 01 07:16:17
  TRACK 299 AUDIO
    TITLE "0:"
    INDEX 01 07:18:63
  TRACK 300 AUDIO
    TITLE "35:cjc160_5375"
    INDEX 01 07:19:13
  TRACK 301 AUDIO
    TITLE "0:"
    INDEX 01 07:21:61
